<?xml version="1.0" encoding="UTF-8"?>
<!DOCTYPE svg PUBLIC "-//W3C//DTD SVG 1.1//EN" "http://www.w3.org/Graphics/SVG/1.1/DTD/svg11.dtd">
<!-- Creator: CorelDRAW -->
<svg xmlns="http://www.w3.org/2000/svg" xml:space="preserve" width="2.33333in" height="2.33333in" style="shape-rendering:geometricPrecision; text-rendering:geometricPrecision; image-rendering:optimizeQuality; fill-rule:evenodd; clip-rule:evenodd"
viewBox="0 0 2.33333 2.33333"
 xmlns:xlink="http://www.w3.org/1999/xlink">
 <defs>
  <style type="text/css">
   <![CDATA[
    .fil0 {fill:#022A32}
    .fil1 {fill:#DB5656}
   ]]>
  </style>
 </defs>
 <g id="Layer_x0020_1">
  <metadata id="CorelCorpID_0Corel-Layer"/>
  <path class="fil0" d="M1.61413 2.01998l-0.894925 0c-0.058252,0 -0.105626,-0.047374 -0.105626,-0.10561l0 -0.921252c0,-0.0147362 0.0119331,-0.0266654 0.0266654,-0.0266654l1.05286 3.93701e-006c0.0147323,0 0.0266654,0.0119331 0.0266654,0.0266654l0 0.921252c-1.5748e-005,0.0582323 -0.0474055,0.105606 -0.105642,0.105606zm-0.947217 -1.00019l0 0.894583c0,0.0288346 0.0234567,0.0522953 0.0523031,0.0522953l0.894929 -7.87402e-006c0.0288346,0 0.0523031,-0.0234409 0.0523031,-0.0522913l0 -0.894587 -0.999535 7.87402e-006z"/>
  <path class="fil0" d="M1.77338 1.01979l-1.21341 0c-0.032126,0 -0.058252,-0.026126 -0.058252,-0.058252l0 -0.114496c0,-0.032126 0.026126,-0.058252 0.058252,-0.058252l1.21341 0c0.032126,0 0.0582362,0.026126 0.0582362,0.058252l0 0.114496c0,0.0321102 -0.026126,0.058252 -0.0582362,0.058252zm-1.21343 -0.177669c-0.00266535,0 -0.00491732,0.00225197 -0.00491732,0.00492126l0 0.114496c0,0.00266535 0.00225197,0.00491732 0.00491732,0.00491732l1.21341 0c0.00264961,0 0.00491732,-0.00225197 0.00491732,-0.00491732l0 -0.114496c0,-0.00266929 -0.00225197,-0.00492126 -0.00491732,-0.00492126l-1.21341 0z"/>
  <path class="fil0" d="M1.69967 0.842122l-1.06601 0c-0.0147362,0 -0.0266693,-0.0119291 -0.0266693,-0.0266654l0 -0.196429c0,-0.0234173 0.0190394,-0.0424528 0.0424567,-0.0424528l1.03443 0c0.0234173,0 0.0424567,0.0190354 0.0424567,0.0424528l0 0.196429c0,0.0147244 -0.0119331,0.0266654 -0.0266654,0.0266654zm-1.03934 -0.0533307l1.01268 0 0 -0.158886 -1.01268 0 0 0.158886z"/>
  <path class="fil0" d="M1.45456 0.629906l-0.57578 0c-0.0147362,0 -0.0266654,-0.0119331 -0.0266654,-0.0266654l0 -0.18426c0,-0.058252 0.0473898,-0.105626 0.105626,-0.105626l0.41785 0c0.0582362,0 0.105626,0.0473898 0.105626,0.105626l0 0.18426c0,0.0147323 -0.0119331,0.0266654 -0.0266575,0.0266654zm-0.549126 -0.0533307l0.522449 0 0 -0.157594c0,-0.0288346 -0.0234567,-0.0523031 -0.0523031,-0.0523031l-0.417854 -7.87402e-006c-0.0288346,0 -0.0523071,0.0234606 -0.0523071,0.0523031l0 0.157602 1.5748e-005 0z"/>
  <path class="fil1" d="M0.850807 1.86844c-0.0147362,0 -0.0266693,-0.0119331 -0.0266693,-0.0266693l0 -0.69711c0,-0.0147362 0.0119331,-0.0266654 0.0266693,-0.0266654 0.0147323,0 0.0266654,0.0119291 0.0266654,0.0266654l0 0.69711c0,0.0147362 -0.0119409,0.0266693 -0.0266654,0.0266693z"/>
  <path class="fil1" d="M1.06137 1.86844c-0.0147362,0 -0.0266654,-0.0119331 -0.0266654,-0.0266693l0 -0.69711c0,-0.0147362 0.0119291,-0.0266654 0.0266654,-0.0266654 0.0147362,0 0.0266654,0.0119291 0.0266654,0.0266654l0 0.69711c0,0.0147362 -0.0119291,0.0266693 -0.0266654,0.0266693z"/>
  <path class="fil1" d="M1.27195 1.86844c-0.0147323,0 -0.0266654,-0.0119331 -0.0266654,-0.0266693l0 -0.69711c0,-0.0147362 0.0119331,-0.0266654 0.0266654,-0.0266654 0.0147362,0 0.0266654,0.0119291 0.0266654,0.0266654l0 0.69711c0,0.0147362 -0.0119291,0.0266693 -0.0266654,0.0266693z"/>
  <path class="fil1" d="M1.48252 1.86844c-0.0147362,0 -0.0266693,-0.0119331 -0.0266693,-0.0266693l0 -0.69711c0,-0.0147362 0.0119331,-0.0266654 0.0266693,-0.0266654 0.0147323,0 0.0266654,0.0119291 0.0266654,0.0266654l0 0.69711c0,0.0147362 -0.0119331,0.0266693 -0.0266654,0.0266693z"/>
 </g>
</svg>
